<svg id="Layer_1" data-name="Layer 1" xmlns="http://www.w3.org/2000/svg" xmlns:xlink="http://www.w3.org/1999/xlink" viewBox="0 0 1366 768"><defs><style>.cls-1,.cls-5{fill:none;}.cls-2{fill:rgb(247, 218, 218);}.cls-3{fill: rgba(233, 233, 233, 0.63);}.cls-4{fill:rgba(172, 169, 169, 0.747);}.cls-5{stroke:rgba(172, 169, 169, 0.747);stroke-miterlimit:10;stroke-width:4px;}.cls-6{opacity:0.48;fill:url(#New_Pattern);}</style><pattern id="New_Pattern" data-name="New Pattern" width="272" height="445" patternUnits="userSpaceOnUse" viewBox="0 0 272 445"><rect class="cls-1" width="272" height="445"/><rect class="cls-2" width="272" height="445"/><rect class="cls-3" x="25" y="50" width="91" height="51"/><path class="cls-4" d="M114,52H27V99h87V52m4-4v55H23V48Z"/><rect class="cls-3" x="48.17" y="39.17" width="45.65" height="8.65"/><path class="cls-4" d="M91.65,41.35H50.35v4.3h41.3v-4.3M96,37V50H46V37Z"/><line class="cls-5" x1="25" y1="76" x2="117.5" y2="75.5"/><rect class="cls-3" x="26" y="251" width="91" height="51"/><path class="cls-4" d="M115,253H28v47h87V253m4-4v55H24V249Z"/><rect class="cls-3" x="49.17" y="240.17" width="45.65" height="8.65"/><path class="cls-4" d="M92.65,242.35H51.35v4.3h41.3v-4.3M97,238v13H47V238Z"/><line class="cls-5" x1="26" y1="277" x2="118.5" y2="276.5"/><polygon class="cls-3" points="18.92 154.34 56.55 119.93 117.96 187.08 80.33 221.5 18.92 154.34"/><path class="cls-4" d="M56.43,122.75,21.74,154.47l58.71,64.2L115.14,187,56.43,122.75m.25-5.65,64.11,70.11L80.2,224.32l-64.11-70.1L56.68,117.1Z"/><polygon class="cls-3" points="73.8 135.56 80.18 129.72 110.99 163.41 104.61 169.25 73.8 135.56"/><path class="cls-4" d="M80.05,132.79l-3.18,2.91,27.87,30.48,3.18-2.91L80.05,132.79m.27-6.14,33.74,36.9-9.59,8.77-33.74-36.9,9.59-8.77Z"/><line class="cls-5" x1="37.37" y1="137.47" x2="100.16" y2="205.4"/><polygon class="cls-3" points="22.92 357.34 60.55 322.93 121.96 390.08 84.33 424.5 22.92 357.34"/><path class="cls-4" d="M60.43,325.75,25.74,357.47l58.71,64.2L119.14,390,60.43,325.75m.25-5.65,64.11,70.11L84.2,427.32l-64.11-70.1L60.68,320.1Z"/><polygon class="cls-3" points="77.8 338.56 84.18 332.72 114.99 366.41 108.61 372.25 77.8 338.56"/><path class="cls-4" d="M84.05,335.79l-3.18,2.91,27.87,30.48,3.18-2.91L84.05,335.79m.27-6.14,33.74,36.9-9.59,8.77-33.74-36.9,9.59-8.77Z"/><line class="cls-5" x1="41.37" y1="340.47" x2="104.16" y2="408.4"/><rect class="cls-3" x="161" y="148" width="91" height="51"/><path class="cls-4" d="M250,150H163v47h87V150m4-4v55H159V146Z"/><rect class="cls-3" x="184.17" y="137.17" width="45.65" height="8.65"/><path class="cls-4" d="M227.65,139.35h-41.3v4.3h41.3v-4.3M232,135v13H182V135Z"/><line class="cls-5" x1="161" y1="174" x2="253.5" y2="173.5"/><rect class="cls-3" x="162" y="349" width="91" height="51"/><path class="cls-4" d="M251,351H164v47h87V351m4-4v55H160V347Z"/><rect class="cls-3" x="185.17" y="338.17" width="45.65" height="8.65"/><path class="cls-4" d="M228.65,340.35h-41.3v4.3h41.3v-4.3M233,336v13H183V336Z"/><line class="cls-5" x1="162" y1="375" x2="254.5" y2="374.5"/><polygon class="cls-3" points="158.22 285.08 219.63 217.93 257.27 252.34 195.86 319.5 158.22 285.08"/><path class="cls-4" d="M219.76,220.75,161.05,285l34.68,31.71,58.71-64.2-34.68-31.72m-.26-5.65,40.59,37.12L196,322.32,155.4,285.21l64.1-70.11Z"/><polygon class="cls-3" points="165.2 261.41 196 227.72 202.39 233.56 171.58 267.25 165.2 261.41"/><path class="cls-4" d="M196.14,230.79l-27.87,30.48,3.17,2.91,27.88-30.48-3.18-2.91m-.27-6.14,9.59,8.77-33.74,36.9-9.6-8.77,33.75-36.9Z"/><line class="cls-5" x1="238.82" y1="235.47" x2="176.03" y2="303.4"/><polygon class="cls-3" points="157.22 84.08 218.63 16.93 256.27 51.34 194.86 118.5 157.22 84.08"/><path class="cls-4" d="M218.76,19.75,160.05,84l34.68,31.71,58.71-64.2L218.76,19.75m-.26-5.65,40.59,37.12L195,121.32,154.4,84.21,218.5,14.1Z"/><polygon class="cls-3" points="164.2 60.41 195 26.72 201.39 32.56 170.58 66.25 164.2 60.41"/><path class="cls-4" d="M195.14,29.79,167.27,60.27l3.17,2.91L198.32,32.7l-3.18-2.91m-.27-6.14,9.59,8.77-33.74,36.9-9.6-8.77,33.75-36.9Z"/><line class="cls-5" x1="237.82" y1="34.47" x2="175.03" y2="102.4"/></pattern></defs><title>office</title><rect class="cls-6" width="1366" height="768"/></svg>